<svg width="41" height="41" viewBox="0 0 41 41" fill="none" xmlns="http://www.w3.org/2000/svg">
<path d="M13.5633 4.19225C13.0829 4.67279 12.813 5.32446 12.813 6.00394C12.813 6.68342 13.0829 7.33509 13.5633 7.81563L26.2477 20.5L13.5633 33.1844C13.0965 33.6677 12.8382 34.315 12.8441 34.9868C12.8499 35.6587 13.1194 36.3014 13.5945 36.7765C14.0696 37.2516 14.7123 37.5211 15.3842 37.527C16.0561 37.5328 16.7034 37.2745 17.1867 36.8077L31.6828 22.3117C32.1631 21.8311 32.433 21.1795 32.433 20.5C32.433 19.8205 32.1631 19.1689 31.6828 18.6883L17.1867 4.19225C16.7061 3.71186 16.0545 3.44199 15.375 3.44199C14.6955 3.44199 14.0439 3.71186 13.5633 4.19225Z" fill="#D1D1D1"/>
</svg>
