<svg width="41" height="41" viewBox="0 0 41 41" fill="none" xmlns="http://www.w3.org/2000/svg">
<path d="M27.4367 4.19225C27.9171 4.67279 28.187 5.32446 28.187 6.00394C28.187 6.68342 27.9171 7.33509 27.4367 7.81563L14.7523 20.5L27.4367 33.1844C27.9035 33.6677 28.1618 34.315 28.1559 34.9868C28.1501 35.6587 27.8806 36.3014 27.4055 36.7765C26.9304 37.2516 26.2877 37.5211 25.6158 37.527C24.9439 37.5328 24.2966 37.2745 23.8133 36.8077L9.31725 22.3117C8.83685 21.8311 8.56698 21.1795 8.56698 20.5C8.56698 19.8205 8.83685 19.1689 9.31725 18.6883L23.8133 4.19225C24.2939 3.71186 24.9455 3.44199 25.625 3.44199C26.3045 3.44199 26.9561 3.71186 27.4367 4.19225Z" fill="#D1D1D1"/>
</svg>
